<?xml version="1.0" encoding="utf-8"?>
<!-- Generator: Adobe Illustrator 24.1.1, SVG Export Plug-In . SVG Version: 6.00 Build 0)  -->
<svg version="1.1" id="Layer_1" xmlns="http://www.w3.org/2000/svg" xmlns:xlink="http://www.w3.org/1999/xlink" x="0px" y="0px"
	 viewBox="0 0 1920 1080" style="enable-background:new 0 0 1920 1080;" xml:space="preserve">
<style type="text/css">
	.st0{fill:#1C75BC;}
	.st1{fill:#646F77;}
</style>
<g>
	<path class="st0" d="M582.73,731.35c-3.23-1.43-7.11-2.3-11.55-2.59c-3.99-0.26-6.8-1.21-8.37-2.86c-2.07-2.07-3.08-4.47-3.08-7.32
		c0-2.94,1.01-5.37,3.09-7.45c2.03-2.07,4.44-3.07,7.37-3.07c2.94,0,5.4,1.01,7.52,3.09c2.11,2.07,3.14,4.51,3.14,7.44v1.22h9.13
		v-1.22c0-5.42-1.93-10.1-5.76-13.92c-3.9-3.81-8.62-5.74-14.03-5.74c-5.42,0-10.08,1.94-13.84,5.74c-3.86,3.81-5.82,8.5-5.82,13.91
		c-0.05,5.38,1.89,10.05,5.75,13.86c0.19,0.19,0.56,0.52,1.09,0.95c2.79,2.51,7.45,3.9,14.22,4.24c6.09,0.31,11.73,2.97,16.77,7.93
		c4.97,4.89,7.49,10.89,7.49,17.82c0,6.85-2.54,12.8-7.56,17.7c-4.93,4.93-11,7.43-18.03,7.43c-6.91,0-12.94-2.44-17.91-7.25
		c-4.97-4.77-7.58-10.62-7.74-17.39l-0.03-1.19h-9.12l0.02,1.25c0.18,9.29,3.69,17.31,10.43,23.83c6.7,6.56,14.89,9.89,24.36,9.89
		c9.51,0,17.77-3.39,24.55-10.08c6.79-6.61,10.24-14.75,10.24-24.18c0-7.15-2.13-13.75-6.32-19.59
		C594.71,738.04,589.33,733.85,582.73,731.35z"/>
	<path class="st1" d="M617.76,796.21h10.34L639,774.92h59.72l10.97,21.29h10.08l-51.07-99.79L617.76,796.21z M643.69,765.66
		l25.01-48.94l25.25,48.94H643.69z"/>
	<polygon class="st1" points="786.7,780.65 741.68,699.11 739.39,699.7 739.39,796.08 748.65,796.08 748.65,731.81 786.7,799.3 
		824.69,731.82 824.69,796.08 833.95,796.08 833.95,699.7 831.65,699.11 	"/>
	<rect x="902.49" y="700.49" class="st0" width="9.26" height="95.6"/>
	<polygon class="st0" points="994.05,700.36 980.91,700.36 919.96,761.11 982.27,823.41 995.33,823.41 933.03,761.11 	"/>
	<path class="st1" d="M995.93,796.21h10.34l10.91-21.29h59.72l10.97,21.29h10.08l-51.08-99.79L995.93,796.21z M1021.86,765.66
		l25.01-48.94l25.25,48.94H1021.86z"/>
	<path class="st1" d="M1188.33,748.1c-0.17,10.77-3.67,20.07-10.4,27.64c-6.74,7.53-14.92,11.34-24.34,11.34
		c-9.41,0-17.58-3.84-24.27-11.4c-6.73-7.61-10.21-16.95-10.34-27.75v-47.57h-9v47.58c0.13,13.44,4.47,25.07,12.9,34.55
		c8.47,9.58,18.82,14.43,30.78,14.43c11.91,0,22.24-4.83,30.71-14.37c8.43-9.49,12.79-21.09,12.97-34.49v-47.72h-9V748.1z"/>
	<polygon class="st1" points="1217.71,709.81 1249.25,709.81 1249.25,796.08 1258.51,796.08 1258.51,709.81 1290.19,709.81 
		1290.19,700.55 1217.71,700.55 	"/>
	<polygon class="st1" points="1384.55,700.68 1310.62,700.68 1310.62,709.94 1367.08,709.94 1310.09,796.08 1383.37,796.08 
		1383.37,786.82 1327.68,786.82 	"/>
	<g>
		<g>
			<path class="st1" d="M884.49,419.22c8.95,3.39,16.15,8.98,21.59,16.78c5.68,7.92,8.53,16.72,8.53,26.4
				c0,12.76-4.6,23.62-13.79,32.57c-9.19,9.07-20.23,13.61-33.11,13.61c-12.82,0-23.77-4.44-32.84-13.33
				c-9.13-8.83-13.82-19.53-14.06-32.11h9.34c0.24,9.98,4.02,18.48,11.34,25.49c7.32,7.08,16.06,10.61,26.22,10.61
				c10.34,0,19.14-3.63,26.4-10.89c7.38-7.2,11.07-15.84,11.07-25.94c0-10.22-3.66-18.93-10.98-26.13
				c-7.38-7.26-15.56-11.11-24.54-11.57s-15.26-2.28-18.82-5.49c-0.73-0.6-1.21-1.03-1.45-1.27c-5.08-5.02-7.59-11.07-7.53-18.14
				c0-7.14,2.54-13.21,7.62-18.23c4.96-5.02,11.01-7.53,18.14-7.53c7.14,0,13.28,2.51,18.42,7.53c5.02,5.02,7.53,11.1,7.53,18.23
				h-9.34c0-4.54-1.63-8.41-4.9-11.61c-3.27-3.2-7.17-4.81-11.7-4.81c-4.54,0-8.38,1.6-11.52,4.81c-3.21,3.21-4.81,7.08-4.81,11.61
				c0,4.42,1.6,8.23,4.81,11.43c2.48,2.6,6.74,4.1,12.79,4.49C874.93,416.12,880.14,417.28,884.49,419.22z"/>
			<path class="st1" d="M867.71,509.79c-13.09,0-24.43-4.6-33.69-13.68c-9.32-9.01-14.18-20.11-14.43-32.96l-0.02-1.25h11.78
				l0.03,1.19c0.23,9.6,3.92,17.89,10.96,24.64c7.05,6.82,15.59,10.27,25.37,10.27c9.96,0,18.55-3.54,25.54-10.53
				c7.11-6.94,10.71-15.37,10.71-25.08c0-9.83-3.57-18.33-10.61-25.26c-7.13-7.01-15.12-10.78-23.74-11.22
				c-9.36-0.47-15.76-2.37-19.58-5.8c-0.74-0.62-1.23-1.04-1.5-1.32c-5.29-5.23-7.95-11.63-7.89-19.02c0-7.43,2.69-13.86,7.98-19.09
				c5.16-5.23,11.56-7.88,19-7.88c7.43,0,13.92,2.65,19.27,7.88c5.25,5.24,7.9,11.67,7.9,19.11v1.22H883v-1.22
				c0-4.23-1.48-7.74-4.53-10.74c-3.06-3-6.61-4.46-10.85-4.46c-4.23,0-7.72,1.45-10.65,4.44c-3,3-4.46,6.52-4.46,10.76
				c0,4.12,1.46,7.57,4.45,10.57c2.27,2.38,6.3,3.76,12.01,4.13c6.15,0.4,11.53,1.61,15.99,3.58c9.13,3.46,16.58,9.25,22.13,17.21
				c5.8,8.09,8.75,17.21,8.75,27.1c0,13.04-4.76,24.3-14.16,33.44C892.29,505.1,880.86,509.79,867.71,509.79z M822.07,464.34
				c0.51,11.66,5.1,21.75,13.65,30.01c8.8,8.62,19.56,12.99,31.99,12.99c12.49,0,23.34-4.46,32.25-13.25
				c8.91-8.67,13.42-19.34,13.42-31.7c0-9.37-2.79-18.01-8.3-25.69c-5.28-7.57-12.35-13.07-21.03-16.35l-0.06-0.03
				c-4.2-1.87-9.31-3.01-15.19-3.39c-6.33-0.41-10.91-2.05-13.6-4.87c-3.41-3.41-5.15-7.54-5.15-12.27c0-4.85,1.74-9.05,5.17-12.48
				c3.36-3.43,7.53-5.17,12.38-5.17c4.85,0,9.07,1.74,12.56,5.16c3.2,3.14,4.95,6.92,5.23,11.26h6.91
				c-0.28-6.25-2.68-11.68-7.15-16.15c-4.87-4.76-10.78-7.17-17.55-7.17c-6.76,0-12.58,2.41-17.27,7.17
				c-4.83,4.77-7.27,10.61-7.27,17.38c-0.06,6.71,2.35,12.52,7.17,17.27c0.15,0.15,0.51,0.48,1.37,1.2
				c3.37,3.03,9.45,4.77,18.1,5.21c9.24,0.47,17.77,4.48,25.33,11.92c7.53,7.4,11.34,16.49,11.34,27c0,10.39-3.85,19.42-11.44,26.82
				c-7.45,7.45-16.62,11.23-27.25,11.23c-10.44,0-19.55-3.69-27.07-10.96c-7.23-6.93-11.15-15.39-11.66-25.15H822.07z"/>
		</g>
		<g>
			<path class="st1" d="M939.08,506.39h-9.53V376.22h9.53V506.39z M968.11,459.22l85.36,85.36h-13.43l-85.36-85.36l83.46-83.19
				h13.52L968.11,459.22z"/>
			<path class="st1" d="M1056.42,545.81h-16.88l-86.59-86.59l0.87-0.86l83.82-83.54h16.98l-84.78,84.41L1056.42,545.81z
				 M1040.55,543.36h9.97l-84.14-84.14l82.32-81.96h-10.05l-82.23,81.97L1040.55,543.36z M940.3,507.61h-11.97V374.99h11.97V507.61z
				 M930.78,505.17h7.08V377.44h-7.08V505.17z"/>
		</g>
	</g>
	<path class="st1" d="M1141.58,444.67c0,50.2-21.27,95.88-55.89,129.63c9.87-13.1,18.18-27.53,24.64-43
		c15.24-25.73,23.91-55.26,23.91-86.64c0-60.04-31.77-113.34-80.54-146.21c-31.83-26.07-71.88-41.69-115.35-41.86
		c0.27,0,0.54-0.01,0.81-0.01C1050.78,256.59,1141.58,340.96,1141.58,444.67z"/>
	<path class="st1" d="M921.89,257.28c-44.96,3.9-85.49,24.35-115.95,55.49c-38.05,33-61.86,79.92-61.86,131.89
		c0,23.4,4.83,45.77,13.6,66.31c5.39,18.17,13.23,35.2,23.14,50.71c-27.56-32.13-44.07-72.82-44.07-117.01
		C736.75,346.38,818.34,265.46,921.89,257.28z"/>
	<path class="st1" d="M1080.16,569.48c-9.79,13.04-21.16,24.72-33.83,34.69c-31.11,18.11-67.84,28.59-107.17,28.59
		c-44.61,0-85.89-13.49-119.38-36.3c-12.66-11.38-23.79-24.55-33.05-39.12c35.77,41.47,90.8,68.09,152.43,68.09
		C994.55,625.43,1044.62,603.93,1080.16,569.48z"/>
	<path class="st0" d="M756.65,453.04c0,38.52,11.08,74.37,30.08,104.29c-12.01-13.93-21.86-29.52-29.05-46.36
		c-5.42-18.31-8.36-37.78-8.36-57.94c0-54.88,21.7-104.59,56.62-140.26c31.08-26.98,71.68-44.66,116.57-48.19
		C829.76,272.64,756.65,354.09,756.65,453.04z"/>
	<path class="st0" d="M1125.94,453.04c0,27.81-5.57,54.29-15.6,78.27c-8.25,13.94-18.41,26.77-30.18,38.17
		c24.08-32.12,38.45-72.55,38.45-116.44c0-104.03-80.8-188.7-180.25-189.11c0.27,0,0.54-0.01,0.81-0.01
		c42.76,0,82.35,12.83,114.54,34.54C1097.66,334.45,1125.94,390.36,1125.94,453.04z"/>
	<path class="st0" d="M1085.7,574.31c-34.5,45.76-88.06,75.19-148.06,75.19c-65.37,0-123.05-34.92-156.82-87.81
		c11.25,13.13,24.38,24.84,38.96,34.77c31.69,28.48,72.88,45.71,117.86,45.71c40.75,0,78.4-14.15,108.69-38
		C1060.77,595.76,1074,585.72,1085.7,574.31z"/>
	<path class="st0" d="M1080.16,569.48c-9.78,13.04-21.16,24.71-33.83,34.69c14.44-8.41,27.67-18.45,39.37-29.86
		c9.87-13.09,18.18-27.53,24.64-42.99C1102.09,545.25,1091.92,558.07,1080.16,569.48z"/>
	<path class="st0" d="M819.78,596.46c-12.66-11.37-23.79-24.54-33.05-39.12c-12.01-13.93-21.86-29.52-29.05-46.35
		c5.38,18.16,13.23,35.2,23.13,50.7C792.08,574.82,805.19,586.52,819.78,596.46z"/>
	<path class="st0" d="M805.94,312.77c31.09-26.98,71.69-44.65,116.57-48.18c4.99-0.43,10.03-0.67,15.12-0.67
		c0.24,0,0.48,0.01,0.72,0.01c0.27,0,0.54-0.01,0.81-0.01c42.77,0,82.35,12.83,114.54,34.53c-31.83-26.07-71.88-41.68-115.35-41.85
		c-5.54,0.02-11.03,0.25-16.47,0.68C876.92,261.19,836.4,281.64,805.94,312.77z"/>
</g>
</svg>
